# Blender v2.76 (sub 0) OBJ File: ''
# www.blender.org
mtllib CrashBox.mtl
o Plane
v -2.031261 0.000000 1.000000
v 2.031261 0.000000 1.000000
v -2.031261 0.000000 -1.000000
v 2.031261 0.000000 -1.000000
v -1.968739 0.000000 -0.937477
v -1.968739 0.000000 0.937477
v 1.968739 0.000000 0.937477
v 1.968739 0.000000 -0.937477
v -1.968739 2.000000 -0.937477
v -1.968739 2.000000 0.937477
v 1.968739 2.000000 0.937477
v 1.968739 2.000000 -0.937477
v -2.031261 2.000000 -1.000000
v -2.031261 2.000000 1.000000
v 2.031261 2.000000 1.000000
v 2.031261 2.000000 -1.000000
vn 0.000000 1.000000 0.000000
vn 0.000000 0.000000 -1.000000
vn 0.000000 0.000000 1.000000
vn 1.000000 0.000000 0.000000
vn -1.000000 0.000000 0.000000
usemtl None
s off
f 6//1 7//1 8//1 5//1
f 7//2 6//2 10//2 11//2
f 5//3 8//3 12//3 9//3
f 1//3 2//3 15//3 14//3
f 4//2 3//2 13//2 16//2
f 10//1 9//1 13//1 14//1
f 11//1 10//1 14//1 15//1
f 12//1 11//1 15//1 16//1
f 9//1 12//1 16//1 13//1
f 2//4 4//4 16//4 15//4
f 3//5 1//5 14//5 13//5
f 8//5 7//5 11//5 12//5
f 6//4 5//4 9//4 10//4
